<svg width="416" height="512" viewBox="0 0 416 512" fill="none" xmlns="http://www.w3.org/2000/svg">
<path d="M160 0C142.3 0 128 14.3 128 32C128 49.7 142.3 64 160 64H176V98.4C76.3 113.8 0 200 0 304C0 418.9 93.1 512 208 512C322.9 512 416 418.9 416 304C416 262.2 403.7 223.3 382.5 190.8L406.6 166.7C419.1 154.2 419.1 133.9 406.6 121.4C394.1 108.9 373.8 108.9 361.3 121.4L339.7 143C311.6 120 277.5 104.2 240 98.4V64H256C273.7 64 288 49.7 288 32C288 14.3 273.7 0 256 0H208H160ZM232 192V320C232 333.3 221.3 344 208 344C194.7 344 184 333.3 184 320V192C184 178.7 194.7 168 208 168C221.3 168 232 178.7 232 192Z" fill="#015F43"/>
</svg>
